<?xml version="1.0" encoding="iso-8859-1"?>
<!-- Uploaded to: SVG Repo, www.svgrepo.com, Generator: SVG Repo Mixer Tools -->
<svg height="800px" width="800px" version="1.1" id="Layer_1" xmlns="http://www.w3.org/2000/svg" xmlns:xlink="http://www.w3.org/1999/xlink" 
	 viewBox="0 0 512 512" xml:space="preserve">
<circle style="fill:#FFB44A;" cx="149.102" cy="255.969" r="138.903"/>
<g>
	<circle style="fill:#DFA14F;" cx="75.398" cy="212.632" r="23.254"/>
	<circle style="fill:#DFA14F;" cx="127.888" cy="175.028" r="14.899"/>
</g>
<path style="fill:#D6D6D6;" d="M429.248,394.924c40.07,0,72.553-32.483,72.553-72.553s-32.483-72.553-72.553-72.553
	c-3.738,0-7.409,0.284-10.994,0.829c-0.028-34.461-27.971-62.39-62.439-62.39c-14.504,0-27.842,4.959-38.442,13.256
	c-15.85-20.374-40.597-33.483-68.408-33.483c-46.389,0-84.26,36.465-86.516,82.294c-2.778-0.323-5.597-0.507-8.462-0.507
	c-40.07,0-72.553,32.483-72.553,72.553s32.483,72.553,72.553,72.553H429.248z"/>
<g>
	<path style="fill:#3D3D3D;" d="M75.403,246.085c8.873,0,17.226-3.435,23.535-9.683h0.001c13.106-12.981,13.209-34.203,0.23-47.309
		s-34.202-13.211-47.311-0.23c-13.106,12.981-13.208,34.203-0.229,47.308c6.287,6.35,14.671,9.871,23.607,9.914
		C75.291,246.085,75.347,246.085,75.403,246.085z M66.211,203.355c2.463-2.439,5.722-3.779,9.185-3.779c0.021,0,0.044,0,0.064,0
		c3.488,0.017,6.76,1.391,9.213,3.869c5.065,5.115,5.024,13.397-0.09,18.462c-2.478,2.453-5.813,3.8-9.25,3.779
		c-3.487-0.017-6.759-1.391-9.212-3.869C61.057,216.703,61.097,208.421,66.211,203.355z"/>
	<path style="fill:#3D3D3D;" d="M127.766,200.124c0.042,0,0.084,0,0.126,0c6.656,0,12.923-2.577,17.657-7.265h0.001
		c9.833-9.737,9.91-25.66,0.172-35.494c-4.717-4.763-11.007-7.405-17.711-7.437c-0.042,0-0.084,0-0.126,0
		c-6.657,0-12.923,2.577-17.657,7.265c-9.834,9.738-9.912,25.66-0.173,35.493C114.773,197.45,121.063,200.092,127.766,200.124z
		 M124.582,171.686c1.191-1.18,2.574-1.36,3.308-1.36c0.007,0,0.015,0,0.021,0c0.727,0.003,2.124,0.19,3.317,1.392
		c1.824,1.842,1.808,4.823-0.033,6.648c-1.191,1.18-2.574,1.36-3.308,1.36c-0.007,0-0.015,0-0.021,0
		c-0.727-0.003-2.124-0.19-3.317-1.393C122.726,176.492,122.741,173.51,124.582,171.686z"/>
	<path style="fill:#3D3D3D;" d="M429.248,405.123c45.629,0,82.752-37.122,82.752-82.752s-37.122-82.752-82.752-82.752
		c-0.545,0-1.09,0.005-1.636,0.016c-5.345-34.818-35.515-61.576-71.796-61.576c-13.074,0-25.573,3.402-36.644,9.913
		c-15.229-16.085-35.245-26.317-57.08-29.256c-28.396-32.973-69.417-51.838-112.993-51.838C66.885,106.876,0,173.761,0,255.974
		s66.885,149.098,149.099,149.098L429.248,405.123z M20.398,255.974c0-70.965,57.735-128.7,128.701-128.7
		c31.455,0,61.37,11.39,84.662,31.765c-41.261,6.494-74.006,38.969-80.462,80.582c-45.316,0.369-82.065,37.348-82.065,82.749
		c0,16.541,4.898,31.952,13.292,44.894C46.211,344.948,20.398,303.421,20.398,255.974z M429.248,384.725H153.987
		c-34.382,0-62.354-27.971-62.354-62.354s27.972-62.354,62.354-62.354c2.358,0,4.74,0.144,7.285,0.44
		c2.811,0.328,5.619-0.525,7.771-2.35c2.153-1.826,3.454-4.461,3.593-7.28c2.004-40.708,35.531-72.597,76.329-72.597
		c23.752,0,45.752,10.769,60.36,29.546c1.664,2.14,4.11,3.528,6.801,3.86c2.688,0.331,5.401-0.421,7.536-2.091
		c9.267-7.254,20.386-11.089,32.155-11.089c28.782,0,52.216,23.415,52.239,52.199c0.002,2.971,1.3,5.793,3.553,7.729
		c2.254,1.936,5.239,2.796,8.179,2.346c3.115-0.473,6.298-0.713,9.461-0.713c34.382,0,62.354,27.972,62.354,62.354
		S463.629,384.725,429.248,384.725z"/>
	<path style="fill:#3D3D3D;" d="M400.667,356.583h-109.05c-5.632,0-10.199,4.566-10.199,10.199c0,5.633,4.567,10.199,10.199,10.199
		h109.05c5.632,0,10.199-4.566,10.199-10.199C410.866,361.149,406.299,356.583,400.667,356.583z"/>
	<path style="fill:#3D3D3D;" d="M436.723,356.583h-4.398c-5.632,0-10.199,4.566-10.199,10.199c0,5.633,4.567,10.199,10.199,10.199
		h4.398c5.632,0,10.199-4.566,10.199-10.199C446.922,361.149,442.356,356.583,436.723,356.583z"/>
</g>
</svg>